<?xml version="1.0" encoding="UTF-8"?>
<svg width="170" height="170" viewBox="0 0 170 170" version="1.1" xmlns="http://www.w3.org/2000/svg">
<rect fill="#868587" rx="19.75" ry="19.75" width="170" height="170"/>
<rect fill="#FFF" x="19" y="19" width="132" height="132"/>
<path d="M52.979,121.961 C51.35,121.961 49.703,121.874 48.083,121.703 46.449,121.528 44.837,121.267 43.29,120.926 L42.327,120.715 V109.146 L43.959,109.713 C45.051,110.092 46.121,110.381 47.139,110.57 48.14,110.757 49.214,110.851 50.327,110.851 54.15,110.851 56.811,109.655 58.461,107.194 60.191,104.612 61.069,100.161 61.069,93.965 L61.069,47.408 H74.412 V96.13 C74.412,104.836 72.679,111.367 69.26,115.547 65.779,119.803 60.302,121.961 52.979,121.961"/>
<path d="M83.807,121.357 V47.408 H97.041 V110.549 H127.751 V121.357"/>
</svg>